<?xml version="1.0" encoding="UTF-8" standalone="no"?>
<!-- Created with Inkscape (http://www.inkscape.org/) -->

<svg
   xmlns:dc="http://purl.org/dc/elements/1.1/"
   xmlns:cc="http://creativecommons.org/ns#"
   xmlns:rdf="http://www.w3.org/1999/02/22-rdf-syntax-ns#"
   xmlns:svg="http://www.w3.org/2000/svg"
   xmlns="http://www.w3.org/2000/svg"
   xmlns:sodipodi="http://sodipodi.sourceforge.net/DTD/sodipodi-0.dtd"
   xmlns:inkscape="http://www.inkscape.org/namespaces/inkscape"
   width="52.916668mm"
   height="13.229167mm"
   viewBox="0 0 52.916668 13.229167"
   version="1.1"
   id="svg1916"
   inkscape:version="0.92.2 (5c3e80d, 2017-08-06)"
   sodipodi:docname="rvtlogoconceptSVGblue3.svg">
  <defs
     id="defs1910" />
  <sodipodi:namedview
     id="base"
     pagecolor="#ffffff"
     bordercolor="#666666"
     borderopacity="1.0"
     inkscape:pageopacity="0.0"
     inkscape:pageshadow="2"
     inkscape:zoom="1.979899"
     inkscape:cx="97.609179"
     inkscape:cy="-11.66597"
     inkscape:document-units="mm"
     inkscape:current-layer="layer1"
     showgrid="false"
     inkscape:window-width="1920"
     inkscape:window-height="1053"
     inkscape:window-x="-9"
     inkscape:window-y="-9"
     inkscape:window-maximized="1" />
  <metadata
     id="metadata1913">
    <rdf:RDF>
      <cc:Work
         rdf:about="">
        <dc:format>image/svg+xml</dc:format>
        <dc:type
           rdf:resource="http://purl.org/dc/dcmitype/StillImage" />
        <dc:title></dc:title>
      </cc:Work>
    </rdf:RDF>
  </metadata>
  <g
     inkscape:label="Layer 1"
     inkscape:groupmode="layer"
     id="layer1"
     transform="translate(20.430439,-7.4806277)">
    <g
       id="g965"
       transform="matrix(0.33642534,0,0,0.29053423,-13.332331,5.3359512)">
      <g
         style="fill:#ffffff;fill-opacity:1"
         id="g905">
        <g
           transform="matrix(0.22475861,0.01996239,-0.01431746,0.14973767,-196.30925,-113.2099)"
           id="g1364-2-2-7-6-4-8"
           style="fill:#ffffff;fill-opacity:1;stroke:none;stroke-width:1.18703079;stroke-miterlimit:4;stroke-dasharray:none;stroke-opacity:1">
          <g
             id="g1336-8-5-2-9-2-8"
             style="fill:#ffffff;fill-opacity:1;stroke:none;stroke-width:1.18703079;stroke-miterlimit:4;stroke-dasharray:none;stroke-opacity:1">
            <path
               inkscape:connector-curvature="0"
               class="st1"
               d="m 1065,841.7 c 0,0 0.2,0.7 0.6,1.9 0.2,0.6 0.4,1.4 0.7,2.3 0.1,0.4 0.3,1 0.4,1.4 0.1,0.4 0.3,0.9 0.5,1.4 0.3,1 0.7,2.1 1.1,3.4 0.5,1.3 1,2.6 1.5,4.1 0.6,1.4 1.2,3 1.9,4.6 0.7,1.6 1.5,3.2 2.3,5 1.7,3.4 3.7,7.1 6,10.9 2.3,3.8 5,7.6 7.9,11.5 2.9,3.9 6.3,7.7 9.8,11.4 3.6,3.7 7.5,7.3 11.5,10.6 4.1,3.4 8.4,6.4 12.8,9.3 4.4,2.9 8.9,5.3 13.4,7.6 2.3,1.1 4.5,2.2 6.7,3.1 2.2,1 4.4,1.8 6.6,2.6 2.2,0.8 4.3,1.5 6.4,2.2 2.1,0.6 4.1,1.3 6.1,1.7 3.9,1 7.6,1.8 10.9,2.4 1.6,0.3 3.2,0.5 4.6,0.8 1.4,0.2 2.7,0.3 3.9,0.5 0.6,0.1 1.2,0.1 1.7,0.2 0.5,0 1,0.1 1.5,0.1 0.9,0.1 1.7,0.1 2.4,0.2 1.3,0.1 2,0.2 2,0.2 0,0 -0.7,0 -2,0.1 -0.6,0 -1.4,0.1 -2.4,0.1 -0.5,0 -1,0 -1.5,0.1 -0.5,0 -1.1,0 -1.7,0 -1.2,0 -2.5,0 -4,0 -1.5,-0.1 -3,-0.1 -4.7,-0.2 -3.4,-0.2 -7.2,-0.5 -11.3,-1 -2.1,-0.2 -4.2,-0.6 -6.4,-1 -2.2,-0.4 -4.5,-0.9 -6.8,-1.4 -2.3,-0.6 -4.7,-1.1 -7.2,-1.8 -2.4,-0.7 -4.9,-1.5 -7.4,-2.3 -5,-1.8 -10.1,-3.7 -15.1,-6.2 -5,-2.4 -10.1,-5.1 -14.9,-8.2 -4.8,-3.1 -9.5,-6.3 -13.9,-9.9 -4.4,-3.6 -8.6,-7.3 -12.4,-11.1 -3.8,-3.9 -7.4,-7.8 -10.5,-11.7 -3.2,-3.9 -5.9,-7.8 -8.4,-11.4 -1.2,-1.9 -2.3,-3.6 -3.4,-5.3 -1,-1.7 -2,-3.4 -2.9,-4.9 -0.8,-1.6 -1.6,-3.1 -2.4,-4.4 -0.7,-1.4 -1.3,-2.8 -1.9,-4 -0.3,-0.6 -0.6,-1.2 -0.8,-1.7 -0.3,-0.6 -0.4,-1 -0.6,-1.4 -0.4,-0.9 -0.7,-1.6 -1,-2.2 -0.5,-1.2 -0.8,-1.8 -0.8,-1.8 z"
               style="fill:#ffffff;fill-opacity:1;stroke:none;stroke-width:1.18703079;stroke-miterlimit:4;stroke-dasharray:none;stroke-opacity:1"
               id="path1330-1-6-2-7-2-7" />
            <g
               id="g1334-8-2-3-8-1-5"
               style="fill:#ffffff;fill-opacity:1;stroke:none;stroke-width:1.18703079;stroke-miterlimit:4;stroke-dasharray:none;stroke-opacity:1">
              <path
                 inkscape:connector-curvature="0"
                 d="m 1042.5,853 6.9,-26.59998 19.6,19.29999 z"
                 class="st1"
                 style="fill:#ffffff;fill-opacity:1;stroke:none;stroke-width:1.18703079;stroke-miterlimit:4;stroke-dasharray:none;stroke-opacity:1"
                 id="path1332-4-6-9-2-8-6" />
            </g>
          </g>
          <g
             id="g1344-2-7-6-4-8-8"
             style="fill:#ffffff;fill-opacity:1;stroke:none;stroke-width:1.18703079;stroke-miterlimit:4;stroke-dasharray:none;stroke-opacity:1">
            <path
               inkscape:connector-curvature="0"
               class="st1"
               d="m 1146.6,676.5 c 0,0 -0.7,0.2 -1.9,0.6 -0.6,0.2 -1.4,0.4 -2.3,0.7 -0.4,0.1 -1,0.3 -1.4,0.4 -0.4,0.1 -0.9,0.3 -1.4,0.5 -1,0.3 -2.1,0.7 -3.4,1.1 -1.3,0.5 -2.6,1 -4.1,1.5 -1.4,0.6 -3,1.2 -4.6,1.9 -1.6,0.7 -3.3,1.5 -5,2.3 -3.4,1.7 -7.2,3.7 -10.9,6 -3.8,2.3 -7.7,5 -11.6,7.9 -3.9,2.9 -7.7,6.3 -11.5,9.8 -3.7,3.6 -7.3,7.5 -10.7,11.5 -3.4,4.1 -6.5,8.4 -9.3,12.8 -2.9,4.4 -5.4,8.9 -7.6,13.4 -1.1,2.3 -2.2,4.5 -3.1,6.7 -1,2.2 -1.8,4.4 -2.6,6.6 -0.8,2.2 -1.5,4.3 -2.2,6.4 -0.6,2.1 -1.3,4.1 -1.7,6.1 -1,3.9 -1.8,7.6 -2.4,10.9 -0.3,1.6 -0.5,3.2 -0.8,4.6 -0.2,1.4 -0.3,2.7 -0.5,3.9 -0.1,0.6 -0.1,1.2 -0.2,1.7 0,0.5 -0.1,1 -0.1,1.5 -0.1,0.9 -0.1,1.7 -0.2,2.4 -0.1,1.3 -0.2,2 -0.2,2 0,0 0,-0.7 -0.1,-2 0,-0.6 -0.1,-1.4 -0.1,-2.4 0,-0.5 0,-1 -0.1,-1.5 0,-0.5 0,-1.1 0,-1.7 0,-1.2 0,-2.5 0,-4 0.1,-1.5 0.1,-3 0.2,-4.7 0.2,-3.4 0.5,-7.2 1,-11.3 0.2,-2.1 0.6,-4.2 1,-6.5 0.4,-2.2 0.9,-4.5 1.4,-6.9 0.6,-2.3 1.1,-4.8 1.9,-7.2 0.7,-2.5 1.5,-4.9 2.3,-7.4 1.8,-5 3.8,-10.1 6.2,-15.1 2.4,-5 5.1,-10.1 8.2,-14.9 3.1,-4.8 6.4,-9.5 9.9,-13.9 3.6,-4.4 7.3,-8.6 11.2,-12.4 3.9,-3.8 7.8,-7.4 11.7,-10.5 3.9,-3.2 7.8,-5.9 11.4,-8.4 1.9,-1.2 3.6,-2.3 5.4,-3.4 1.7,-1 3.4,-2 5,-2.8 1.6,-0.8 3.1,-1.6 4.5,-2.3 1.4,-0.7 2.8,-1.3 4,-1.9 0.6,-0.3 1.2,-0.6 1.7,-0.8 0.6,-0.3 1,-0.4 1.4,-0.6 0.9,-0.4 1.6,-0.7 2.2,-0.9 1.2,-0.5 1.8,-0.8 1.8,-0.8 z"
               style="fill:#ffffff;fill-opacity:1;stroke:none;stroke-width:1.18703079;stroke-miterlimit:4;stroke-dasharray:none;stroke-opacity:1"
               id="path1338-2-5-0-7-6-6" />
            <g
               id="g1342-1-8-9-7-2-6"
               style="fill:#ffffff;fill-opacity:1;stroke:none;stroke-width:1.18703079;stroke-miterlimit:4;stroke-dasharray:none;stroke-opacity:1">
              <path
                 inkscape:connector-curvature="0"
                 d="m 1135.3,654 26.6,6.90002 -19.3,19.59998 z"
                 class="st1"
                 style="fill:#ffffff;fill-opacity:1;stroke:none;stroke-width:1.18703079;stroke-miterlimit:4;stroke-dasharray:none;stroke-opacity:1"
                 id="path1340-7-2-8-0-0-3" />
            </g>
          </g>
          <path
             inkscape:connector-curvature="0"
             class="st1"
             d="M 1188.1,658.5"
             style="fill:#ffffff;fill-opacity:1;stroke:none;stroke-width:1.18703079;stroke-miterlimit:4;stroke-dasharray:none;stroke-opacity:1"
             id="path1346-7-5-5-8-3-9" />
          <g
             id="g1354-0-9-7-1-2-6"
             style="fill:#ffffff;fill-opacity:1;stroke:none;stroke-width:1.18703079;stroke-miterlimit:4;stroke-dasharray:none;stroke-opacity:1">
            <path
               inkscape:connector-curvature="0"
               class="st1"
               d="m 1310.9,757.1 c 0,0 -0.2,-0.7 -0.6,-1.9 -0.2,-0.6 -0.4,-1.4 -0.7,-2.3 -0.1,-0.4 -0.3,-1 -0.4,-1.4 -0.1,-0.4 -0.3,-0.9 -0.5,-1.4 -0.3,-1 -0.7,-2.1 -1.1,-3.3 -0.5,-1.2 -1,-2.6 -1.5,-4 -0.6,-1.4 -1.2,-2.9 -1.9,-4.5 -0.7,-1.6 -1.5,-3.2 -2.3,-5 -1.7,-3.4 -3.7,-7.1 -6,-10.8 -2.3,-3.8 -5,-7.6 -7.9,-11.4 -2.9,-3.9 -6.3,-7.6 -9.8,-11.3 -3.6,-3.7 -7.4,-7.2 -11.5,-10.5 -4,-3.4 -8.4,-6.4 -12.7,-9.2 -4.4,-2.8 -8.9,-5.3 -13.3,-7.5 -2.3,-1.1 -4.5,-2.2 -6.7,-3.1 -2.2,-1 -4.4,-1.8 -6.6,-2.6 -2.2,-0.8 -4.3,-1.5 -6.4,-2.2 -2.1,-0.6 -4.1,-1.2 -6.1,-1.7 -3.9,-1 -7.6,-1.8 -10.8,-2.4 -1.6,-0.3 -3.2,-0.5 -4.6,-0.8 -1.4,-0.2 -2.7,-0.3 -3.9,-0.5 -0.6,-0.1 -1.2,-0.1 -1.7,-0.2 -0.5,0 -1,-0.1 -1.5,-0.1 -0.9,-0.1 -1.7,-0.1 -2.3,-0.2 -1.3,-0.1 -2,-0.2 -2,-0.2 0,0 0.7,0 2,-0.1 0.6,0 1.4,-0.1 2.4,-0.1 0.5,0 1,0 1.5,-0.1 0.5,0 1.1,0 1.7,0 1.2,0 2.5,0 4,0 1.4,0.1 3,0.1 4.7,0.2 3.3,0.2 7.1,0.5 11.2,1 2.1,0.2 4.2,0.6 6.4,1 2.2,0.4 4.5,0.8 6.8,1.4 2.3,0.6 4.7,1.1 7.1,1.8 2.4,0.6 4.9,1.5 7.4,2.3 4.9,1.7 10,3.7 15,6.1 5,2.4 10,5 14.8,8.1 4.8,3 9.5,6.3 13.9,9.8 4.4,3.5 8.6,7.2 12.4,11 3.8,3.8 7.4,7.7 10.5,11.6 3.2,3.8 5.9,7.7 8.4,11.3 1.2,1.8 2.3,3.6 3.4,5.3 1,1.7 2,3.4 2.9,4.9 0.8,1.6 1.6,3 2.4,4.4 0.7,1.4 1.4,2.7 1.9,3.9 0.3,0.6 0.6,1.2 0.8,1.7 0.3,0.6 0.4,1 0.6,1.4 0.4,0.8 0.7,1.6 1,2.2 0.5,1.2 0.8,1.8 0.8,1.8 z"
               style="fill:#ffffff;fill-opacity:1;stroke:none;stroke-width:1.18703079;stroke-miterlimit:4;stroke-dasharray:none;stroke-opacity:1"
               id="path1348-4-0-9-2-1-6" />
            <g
               id="g1352-0-6-0-5-4-0"
               style="fill:#ffffff;fill-opacity:1;stroke:none;stroke-width:1.18703079;stroke-miterlimit:4;stroke-dasharray:none;stroke-opacity:1">
              <path
                 inkscape:connector-curvature="0"
                 d="m 1333.4,745.70001 -6.7,26.59998 -19.8,-19.09998 z"
                 class="st1"
                 style="fill:#ffffff;fill-opacity:1;stroke:none;stroke-width:1.18703079;stroke-miterlimit:4;stroke-dasharray:none;stroke-opacity:1"
                 id="path1350-8-9-8-9-6-3" />
            </g>
          </g>
          <g
             id="g1362-8-5-5-5-2-9"
             style="fill:#ffffff;fill-opacity:1;stroke:none;stroke-width:1.18703079;stroke-miterlimit:4;stroke-dasharray:none;stroke-opacity:1">
            <path
               inkscape:connector-curvature="0"
               class="st1"
               d="m 1234.8,921.1 c 0,0 0.6,-0.2 1.8,-0.6 0.6,-0.2 1.3,-0.4 2.2,-0.7 0.4,-0.1 0.9,-0.3 1.3,-0.5 0.4,-0.2 0.9,-0.3 1.4,-0.5 1,-0.4 2,-0.7 3.2,-1.2 1.2,-0.5 2.5,-1 3.9,-1.6 1.4,-0.6 2.8,-1.3 4.4,-2 1.5,-0.8 3.1,-1.6 4.8,-2.4 3.3,-1.8 6.8,-3.8 10.4,-6.1 3.6,-2.3 7.3,-5 11,-8 3.7,-2.9 7.3,-6.3 10.8,-9.8 3.5,-3.5 6.9,-7.4 10.1,-11.3 3.2,-4 6.1,-8.2 8.8,-12.5 2.7,-4.3 5,-8.7 7.2,-13.1 1,-2.2 2.1,-4.4 2.9,-6.5 0.9,-2.2 1.7,-4.3 2.5,-6.4 0.8,-2.1 1.4,-4.2 2.1,-6.2 0.6,-2 1.2,-4 1.7,-5.9 1,-3.8 1.7,-7.4 2.3,-10.5 0.3,-1.6 0.5,-3.1 0.7,-4.4 0.2,-1.4 0.3,-2.7 0.5,-3.8 0.2,-1.1 0.3,-2.2 0.3,-3.1 0.1,-0.9 0.1,-1.7 0.2,-2.3 0.1,-1.2 0.2,-1.9 0.2,-1.9 0,0 0,0.7 0.1,1.9 0,0.6 0.1,1.4 0.1,2.3 0.1,0.9 0.1,1.9 0.1,3.1 0,1.2 0,2.5 0,3.9 0,1.4 -0.1,2.9 -0.1,4.6 -0.2,3.3 -0.4,6.9 -0.9,10.9 -0.2,2 -0.6,4.1 -0.9,6.2 -0.4,2.1 -0.8,4.4 -1.3,6.6 -0.5,2.3 -1,4.6 -1.7,7 -0.6,2.4 -1.4,4.8 -2.1,7.2 -1.6,4.8 -3.5,9.8 -5.7,14.7 -2.3,4.9 -4.7,9.8 -7.6,14.6 -2.9,4.7 -5.9,9.4 -9.3,13.7 -3.3,4.3 -6.8,8.5 -10.4,12.3 -3.6,3.8 -7.3,7.3 -11,10.5 -3.6,3.2 -7.3,6 -10.8,8.5 -1.7,1.2 -3.4,2.4 -5,3.4 -1.6,1 -3.2,2 -4.7,2.9 -1.5,0.9 -2.9,1.7 -4.2,2.4 -1.3,0.7 -2.6,1.4 -3.8,2 -0.6,0.3 -1.1,0.6 -1.6,0.9 -0.5,0.3 -0.9,0.5 -1.3,0.7 -0.8,0.4 -1.5,0.7 -2.1,1 -1.1,0.5 -1.7,0.8 -1.7,0.8 z"
               style="fill:#ffffff;fill-opacity:1;stroke:none;stroke-width:1.18703079;stroke-miterlimit:4;stroke-dasharray:none;stroke-opacity:1"
               id="path1356-1-1-9-3-3-2" />
            <g
               id="g1360-7-3-5-0-1-6"
               style="fill:#ffffff;fill-opacity:1;stroke:none;stroke-width:1.18703079;stroke-miterlimit:4;stroke-dasharray:none;stroke-opacity:1">
              <path
                 inkscape:connector-curvature="0"
                 d="M 1247,943.20001 1220.1,937.29999 1238.6,917 Z"
                 class="st1"
                 style="fill:#ffffff;fill-opacity:1;stroke:none;stroke-width:1.18703079;stroke-miterlimit:4;stroke-dasharray:none;stroke-opacity:1"
                 id="path1358-3-6-1-4-6-0" />
            </g>
          </g>
        </g>
      </g>
      <text
         transform="scale(2.1056331,0.47491655)"
         id="text1195-2-6-8-1-57-9"
         y="93.599274"
         x="-12.079122"
         style="font-style:normal;font-weight:normal;font-size:98.06780243px;line-height:1.25;font-family:sans-serif;letter-spacing:0px;word-spacing:0px;fill:#1c728e;fill-opacity:1;stroke:none;stroke-width:1.23919487;stroke-miterlimit:4;stroke-dasharray:none"
         xml:space="preserve"><tspan
           style="font-style:normal;font-variant:normal;font-weight:normal;font-stretch:normal;font-family:LilyUPC;-inkscape-font-specification:LilyUPC;fill:#353738;fill-opacity:1;stroke:#1c728e;stroke-width:1.23919487;stroke-miterlimit:4;stroke-dasharray:none;stroke-opacity:1"
           y="93.599274"
           x="-12.079122"
           id="tspan1193-0-5-3-5-5-4"
           sodipodi:role="line">rvt</tspan></text>
    </g>
  </g>
</svg>
